# xmcd
#
# Track frame offsets:
#	150
#	13069
#	26129
#	41866
#	56083
#	72523
#	86929
#	98445
#	115840
#	130761
#	147700
#	167937
#	181696
#	195018
#	208945
#	224302
#	237328
#	248603
#	263098
#	277412
#
# Disc length: 3908 seconds
#
# Revision: 0
# Processed by: cddbd v1.5.2PL0 Copyright (c) Steve Scherf et al.
# Submitted via: EasyCDDAExtractor 16.0.8.2
#
DISCID=320f4214
DTITLE=Συλλογικός δίσκος - Όλα τα ρεμπέτικα 23
DYEAR=2008
DGENRE=Ρεμπέτικη
TTITLE0=Μπέλλου Σωτηρία - Χωρίς παλτό [Γ. Μητσάκης]
TTITLE1=Μπαρμπεράκης Μανώλης - Τα δυό σου χέρια πήρανε [Μ. Βαμβακάρης]
TTITLE2=Γλυκερία - Η μπολσεβίκα [Παν. Τούντας]
TTITLE3=Ιακωβίδης Αγάθωνας - Οι φυλακές του Ωρωπού [Γ. Μπάτης]
TTITLE4=Μαριώ - Στους απάνω μαχαλάδες [παραδοσιακό]
TTITLE5=Δασκαλάκης Μιχάλης - Το κομπολογάκι [Γ. Μητσάκης]
TTITLE6=Νταράλας Λουκάς - Τα όμορφα τα γαλανά σου μάτια [Μ. Βαμβακάρης]
TTITLE7=Κοντογιάννης Δημήτρης - Εργάτης τιμημένος [Παν. Τούντας]
TTITLE8=Κιουπρούλης Στέφανος ή Χοντρονάκος-Μαριώ - Τρίτη Πέμπτη μακαρόνια [Στ.
TTITLE8=Κιουπρούλης]
TTITLE9=Ντάλη Καίτη - Αθηναίϊσσα [Β. Τσιτσάνης]
TTITLE10=Απόδημη Κομπανία - Γλυκά μάτια [Δημ. Λορέντζος ή Μπαρούσης]
TTITLE11=Γκολές Μπάμπης - Μιά βαρκούλα θα ναυλώσω [Μαν. Χρυσαφάκης]
TTITLE12=Γενίτσαρης Μιχάλης - Εχάθηκε το γέλιο μου [Μ.Γενίτσαρης-Π.Καπλάνογλου
TTITLE12=]
TTITLE13=Ευσταθίου Δημήτρης - Γιά μιά γυναίκα χάθηκα [Β. Τσιτσάνης]
TTITLE14=Λάλεζας Παναγιώτης-Οι Δήθεν - Η παγίδα [Γρηγ. Ασίκης]
TTITLE15=Μητσάκης Γιώργος - Παλιοκοινωνία [Γ. Μητσάκης]
TTITLE16=Μουφλουζέλης Γιώργος - Θα βρω γυναικομάνι [Γ. Μουφλουζέλης]
TTITLE17=Περγιάλης Νίκος - Πάλι θα τα ξαναπούμε [Ν. Περγιάλης]
TTITLE18=Παγιουμτζής Στράτος - Σαν της ορφάνιας τον καϋμό [Σ. Παγιουμτζής]
TTITLE19=Καλυβόπουλος Αντώνης - Γιοβάν Τσαούς (Το μπουζ. μου κρατάω)[Γ.Εϊτζιρί
TTITLE19=δης]
EXTD=
EXTT0=
EXTT1=
EXTT2=
EXTT3=
EXTT4=
EXTT5=
EXTT6=
EXTT7=
EXTT8=
EXTT9=
EXTT10=
EXTT11=
EXTT12=
EXTT13=
EXTT14=
EXTT15=
EXTT16=
EXTT17=
EXTT18=
EXTT19=
PLAYORDER=
